/* XPM */
static char *result[] = {
/* columns rows colors chars-per-pixel */
"32 32 23 1 ",
"  c black",
". c #151615",
"X c #250D1B",
"o c #2B2D2B",
"O c #4C1437",
"+ c #4A1A36",
"@ c #4A143B",
"# c #4C1B38",
"$ c #4C3325",
"% c #631B4F",
"& c #5D2044",
"* c #66244B",
"= c #942240",
"- c #993570",
"; c #C62E55",
": c #E59A72",
"> c #AC2F8A",
", c #CC3695",
"< c #CC4796",
"1 c #FF59BB",
"2 c #F743C6",
"3 c #FFBD99",
"4 c None",
/* pixels */
"444444444444%%%%%%%%444444444444",
"4444444444%%22>>>>22%%4444444444",
"4444444444%%22>>>>22%%4444444444",
"44444444%%22>>>>>>>>22%%44444444",
"44444444%%22>>>>>>>>22%%44444444",
"444444%%>>>>@@@@@@@@>>>>%%444444",
"444444%%>>>>@@@@@@@@>>>>%%444444",
"444444%%>>@@@@%%%%@@@@>>%%444444",
"444444%%>>@@@@%%%%@@@@>>%%444444",
"444444..@@@@%%%%%%%%@@@@..444444",
"444444..@@@@%%%%%%%%@@@@..444444",
"4444..oooo33  3333  33oooo..4444",
"4444..oooo33  3333  33oooo..4444",
"4444..oooo::  3333  ::oooo..4444",
"4444..oooo::  3333  ::oooo..4444",
"444444..oo$$::::::::$$oo..444444",
"444444..oo$$::::::::$$oo..444444",
"44444444##==$$$$$$$$==##44444444",
"44444444##==$$$$$$$$==##44444444",
"444444##--;;========;;--##444444",
"444444##--;;========;;--##444444",
"4444**<<<<;;;;;;;;;;;;<<<<**4444",
"4444**<<<<;;;;;;;;;;;;<<<<**4444",
"4444**11<<**;;;;;;;;**<<11**4444",
"4444**11<<**;;;;;;;;**<<11**4444",
"444444****&&&&&&&&&&&&****444444",
"444444****&&&&&&&&&&&&****444444",
"44444444XX&&&&++++&&&&XX44444444",
"44444444XX&&&&++++&&&&XX44444444",
"44444444OO,,,,XXXX,,,,OO44444444",
"44444444OO,,,,XXXX,,,,OO44444444",
"4444444444OOOO4444OOOO4444444444"
};
