/* XPM */
static char *result[] = {
/* columns rows colors chars-per-pixel */
"32 32 138 2 ",
"   c #452924",
".  c #4F2E28",
"X  c #5F382F",
"o  c #603A2F",
"O  c #613A30",
"+  c #623A31",
"@  c #643B32",
"#  c #613C32",
"$  c #653D32",
"%  c #673D33",
"&  c #673E33",
"*  c #683F33",
"=  c #594932",
"-  c #634133",
";  c #694033",
":  c #6A4034",
">  c #6A4134",
",  c #6B4134",
"<  c #6A4035",
"1  c #6B4234",
"2  c #6E4237",
"3  c #6F4436",
"4  c #6C4538",
"5  c #704436",
"6  c #704437",
"7  c #714537",
"8  c #724637",
"9  c #724538",
"0  c #724638",
"q  c #734638",
"w  c #734739",
"e  c #744738",
"r  c #754739",
"t  c #72483A",
"y  c #754839",
"u  c #76493A",
"i  c #77493A",
"p  c #724A3C",
"a  c #744B3D",
"s  c #734F3C",
"d  c #744F3C",
"f  c #774E3C",
"g  c #744C3E",
"h  c #784A3A",
"j  c #784A3B",
"k  c #794B3B",
"l  c #7A4B3B",
"z  c #7B4D3A",
"x  c #7E4F3B",
"c  c #7A4B3C",
"v  c #784C3C",
"b  c #7B4C3C",
"n  c #7D4E3D",
"m  c #7E4E3C",
"M  c #7F4F3F",
"N  c #605037",
"B  c #695239",
"V  c #7C513F",
"C  c #79543E",
"Z  c #7A553E",
"A  c #7C5640",
"S  c #736041",
"D  c #746142",
"F  c #796444",
"G  c #796544",
"H  c #7A6544",
"J  c #7B6746",
"K  c #7E6946",
"L  c #7F6B47",
"P  c #72615E",
"I  c #796562",
"U  c #80503C",
"Y  c #80513C",
"T  c #81513C",
"R  c #81513D",
"E  c #82513D",
"W  c #81523D",
"Q  c #83523D",
"!  c #83523E",
"~  c #84533E",
"^  c #85543F",
"/  c #86543E",
"(  c #86553F",
")  c #835242",
"_  c #855441",
"`  c #875540",
"'  c #855443",
"]  c #895640",
"[  c #895741",
"{  c #845844",
"}  c #855944",
"|  c #855A45",
" . c #855B46",
".. c #8E5A43",
"X. c #895B46",
"o. c #875E49",
"O. c #8B5E48",
"+. c #8E6148",
"@. c #8C614B",
"#. c #8E614A",
"$. c #806C4A",
"%. c #846E4A",
"&. c #90634C",
"*. c #91634C",
"=. c #91644D",
"-. c #86704B",
";. c #86704C",
":. c #8A744E",
">. c #8B764F",
",. c #8E774F",
"<. c #966951",
"1. c #9F6F52",
"2. c #8D7750",
"3. c #A27359",
"4. c #AC7C5A",
"5. c #AD7C5A",
"6. c #AF7F5F",
"7. c #B07E5C",
"8. c #B07F5C",
"9. c #988256",
"0. c #9D8457",
"q. c #A18859",
"w. c #A1895A",
"e. c #A28A5B",
"r. c #A68E5D",
"t. c #B3825E",
"y. c #B4835F",
"u. c #B48360",
"i. c #B58460",
"p. c #B68561",
"a. c #B78661",
"s. c #7C8083",
"d. c #7F868A",
"f. c #899193",
"g. c #8D9294",
"h. c #A8B0AF",
"j. c #A9B5B3",
"k. c None",
/* pixels */
"k.k.k.k.k.k.k.k.k.k.k.k.k.k.k.k.k.k.k.k.k.k.k.k.k.k.k.k.k.k.k.k.",
"k.k.k.k.k.k.k.k.k.k.k.k.k.k.k.w.k.k.k.k.k.k.k.k.k.k.k.k.k.k.k.k.",
"k.k.k.k.k.k.k.k.k.k.k.k.k.k.= r.= k.k.k.k.k.k.k.k.k.k.k.k.k.k.k.",
"k.k.k.k.k.k.k.k.k.k.k.k.k.S L r.L S k.k.k.k.k.k.k.k.k.k.k.k.k.k.",
"k.k.k.k.k.k.k.k.k.k.k.k.S e.H r.H e.S k.k.k.k.k.k.k.k.k.k.k.k.k.",
"k.k.k.k.k.k.k.k.k.k.k.N e.,.D r.D ,.e.N k.k.k.k.k.k.k.k.k.k.k.k.",
"k.k.k.k.k.k.k.k.k.k.S >.,.9.K r.K 9.,.>.S k.k.k.k.k.k.k.k.k.k.k.",
"k.k.k.k.k.k.k.k.k.S e.;.9.q.H r.H q.9.;.e.S k.k.k.k.k.k.k.k.k.k.",
"k.k.k.k.k.k.k.k.S e.,.$.q.,.D r.D ,.q.$.,.e.S k.k.k.k.k.k.k.k.k.",
"k.k.k.k.k.k.k.S :.,.9.:.,.9.K r.K 9.,.:.9.,.:.S k.k.k.k.k.k.k.k.",
"k.k.k.k.k.k.S e.J 9.q.;.9.0.B r.B 0.9.;.q.9.J e.S k.k.k.k.k.k.k.",
"k.k.k.k.k.S e.,.>.q.,.$.0.A - -.- A 0.$.,.q.>.,.e.S k.k.k.k.k.k.",
"k.k.k.k.S e.,.9.:.,.9.:.C [ 7 W 7 [ C :.9.,.:.9.,.e.S k.k.k.k.k.",
"k.k.k.S e.,.9.q.J 9.0.s E Y l Q l Y E s 0.9.J q.9.,.e.k.k.k.k.k.",
"k.k.S e.,.9.q.,.>.0.Z i Q Y b Q b Y Q i Z 0.>.,.q.9.,.k.k.k.k.k.",
"k.k.G %.9.q.,.9.;.A E u / Y b Q b Y / u E A ;.9.,.q.9.k.k.k.k.k.",
"k.k.k.>.q.,.9.0.d ! T ; ..[ b T b [ ..; T ! d 0.9.,.q.k.k.k.k.k.",
"k.k.k.F %.9.0.A k l r , > > 0 0 0 > > , r l k A 0.9.%.k.k.k.k.k.",
"k.k.k.k.k.2.A [ R R R T Y Y Y Y Y Y Y T R R R [ A 2.k.k.k.k.k.k.",
"k.k.k.k.k.# 6 a o.o.o.@.=.=.=.=.=.=.=.=.=.=.O.9 8 k.k.k.k.k.k.k.",
"k.k.k.k.k.% ] <.p.p.p.p.p.p.p.p.p.p.p.p.p.p.8.y 7 k.k.k.k.k.k.k.",
"k.k.k.k.k.% ] <.6.3.3.3.3.3.a.t.8.8.8.8.8.i.7.y 7 k.k.k.k.k.k.k.",
"k.k.k.k.k.% ] <.' _ ) ) ) ^ *.V w j n n n 1.7.y l k.k.k.k.k.k.k.",
"k.k.k.k.k.% ] <.M I h.g.s.c #.l 5 7 b b m X.7.y b k.k.k.k.k.k.k.",
"k.k.k.k.k.. ] <.y P d.j.f.y #.h y ~ ~ ] 7 X.7.y b k.k.k.k.k.k.k.",
"k.k.k.k.k.  ` <.e v p g g U  .y b Q < 2 7 X.7.0 b k.k.k.k.k.k.k.",
"k.k.k.k.k.  ( <.+.f f f f f 4.3 b Q @ + * X.7.0 b k.k.k.k.k.k.k.",
"k.k.k.k.k.  x &.u.y.y.y.y.y.8.& 0 Q E z , { 5.0 q k.k.k.k.k.k.k.",
"k.k.k.k.k.k.1 t | | | | | | } X X > > : O 4 } $ o k.k.k.k.k.k.k.",
"k.k.k.k.k.k.k.k.k.k.k.k.k.k.k.k.k.k.k.k.k.k.k.k.k.k.k.k.k.k.k.k.",
"k.k.k.k.k.k.k.k.k.k.k.k.k.k.k.k.k.k.k.k.k.k.k.k.k.k.k.k.k.k.k.k.",
"k.k.k.k.k.k.k.k.k.k.k.k.k.k.k.k.k.k.k.k.k.k.k.k.k.k.k.k.k.k.k.k."
};
