/* XPM */
static char *result[] = {
/* columns rows colors chars-per-pixel */
"16 16 3 1 ",
"  c #1F6363",
". c #0F7881",
"X c #0F8892",
/* pixels */
" .............. ",
"................",
"X...............",
"X.............. ",
"X.............. ",
"X.............. ",
"X.............. ",
"X.............. ",
"X.............. ",
"X.............. ",
"X.............. ",
"X.............. ",
"X.............. ",
"XX............. ",
".XXXXXXXXXXXX.  ",
" ..             "
};
